<svg width="500" height="500" viewBox="0 0 500 500" fill="none" xmlns="http://www.w3.org/2000/svg">
  <!-- Browser Frame -->
  <rect x="0" y="0" width="500" height="500" rx="12" fill="#0a0b14"/>

  <!-- Title Bar -->
  <rect x="0" y="0" width="500" height="40" rx="12" fill="#111320"/>
  <rect x="0" y="28" width="500" height="12" fill="#111320"/>

  <!-- Window Controls -->
  <circle cx="20" cy="20" r="6" fill="#ff5f57"/>
  <circle cx="40" cy="20" r="6" fill="#febc2e"/>
  <circle cx="60" cy="20" r="6" fill="#28c840"/>

  <!-- URL Bar -->
  <rect x="90" y="10" width="340" height="20" rx="4" fill="#0a0b14"/>
  <text x="110" y="24" font-family="system-ui, sans-serif" font-size="11" fill="#64748b">mark-drive.com</text>

  <!-- App Header -->
  <rect x="20" y="56" width="460" height="48" rx="8" fill="#111320"/>
  <text x="40" y="86" font-family="system-ui, sans-serif" font-size="14" font-weight="600" fill="#e2e8f0">README.md</text>

  <!-- Content Area -->
  <rect x="20" y="120" width="460" height="360" rx="8" fill="#1a1d2e"/>

  <!-- Markdown Content -->
  <!-- H1 -->
  <text x="40" y="160" font-family="system-ui, sans-serif" font-size="22" font-weight="700" fill="#e2e8f0"># Welcome to MarkDrive</text>

  <!-- Paragraph -->
  <text x="40" y="196" font-family="system-ui, sans-serif" font-size="13" fill="#94a3b8">A beautiful Markdown viewer</text>
  <text x="40" y="214" font-family="system-ui, sans-serif" font-size="13" fill="#94a3b8">for Google Drive files.</text>

  <!-- H2 -->
  <text x="40" y="254" font-family="system-ui, sans-serif" font-size="17" font-weight="600" fill="#e2e8f0">## Features</text>

  <!-- List items -->
  <circle cx="50" cy="285" r="3" fill="#6366f1"/>
  <text x="65" y="290" font-family="system-ui, sans-serif" font-size="13" fill="#94a3b8">Google Drive integration</text>

  <circle cx="50" cy="315" r="3" fill="#6366f1"/>
  <text x="65" y="320" font-family="system-ui, sans-serif" font-size="13" fill="#94a3b8">Beautiful syntax highlighting</text>

  <circle cx="50" cy="345" r="3" fill="#6366f1"/>
  <text x="65" y="350" font-family="system-ui, sans-serif" font-size="13" fill="#94a3b8">Mermaid diagram support</text>

  <!-- Code Block -->
  <rect x="40" y="375" width="420" height="80" rx="6" fill="#161b22"/>
  <text x="55" y="400" font-family="monospace" font-size="12" fill="#8b949e">```javascript</text>
  <text x="55" y="420" font-family="monospace" font-size="12" fill="#e6edf3">const viewer = new MDViewer();</text>
  <text x="55" y="440" font-family="monospace" font-size="12" fill="#e6edf3">viewer.render(markdown);</text>

  <!-- Decorative gradient overlay -->
  <defs>
    <linearGradient id="fadeBottom" x1="0" y1="0" x2="0" y2="1">
      <stop offset="0.7" stop-color="#0a0b14" stop-opacity="0"/>
      <stop offset="1" stop-color="#0a0b14" stop-opacity="0.8"/>
    </linearGradient>
  </defs>
  <rect x="0" y="400" width="500" height="100" fill="url(#fadeBottom)"/>
</svg>
