<svg width="500" height="500" viewBox="0 0 500 500" fill="none" xmlns="http://www.w3.org/2000/svg">
  <!-- Browser Frame -->
  <rect x="0" y="0" width="500" height="500" rx="12" fill="#0a0b14"/>

  <!-- Title Bar -->
  <rect x="0" y="0" width="500" height="40" rx="12" fill="#111320"/>
  <rect x="0" y="28" width="500" height="12" fill="#111320"/>

  <!-- Window Controls -->
  <circle cx="20" cy="20" r="6" fill="#ff5f57"/>
  <circle cx="40" cy="20" r="6" fill="#febc2e"/>
  <circle cx="60" cy="20" r="6" fill="#28c840"/>

  <!-- URL Bar -->
  <rect x="90" y="10" width="340" height="20" rx="4" fill="#0a0b14"/>
  <text x="110" y="24" font-family="system-ui, sans-serif" font-size="11" fill="#64748b">mark-drive.com</text>

  <!-- App Header -->
  <rect x="20" y="56" width="460" height="48" rx="8" fill="#111320"/>
  <text x="40" y="86" font-family="system-ui, sans-serif" font-size="14" font-weight="600" fill="#e2e8f0">README.md</text>

  <!-- Content Area -->
  <rect x="20" y="120" width="460" height="360" rx="8" fill="#1a1d2e"/>

  <!-- Rendered Markdown Content -->
  <!-- H1 (no # mark, rendered heading) -->
  <text x="40" y="160" font-family="system-ui, sans-serif" font-size="24" font-weight="700" fill="#e2e8f0">Welcome to MarkDrive</text>
  <!-- H1 bottom border -->
  <line x1="40" y1="170" x2="440" y2="170" stroke="#1e2038" stroke-width="2"/>

  <!-- Paragraph -->
  <text x="40" y="200" font-family="system-ui, sans-serif" font-size="14" fill="#94a3b8">A beautiful Markdown viewer</text>
  <text x="40" y="220" font-family="system-ui, sans-serif" font-size="14" fill="#94a3b8">for Google Drive files.</text>

  <!-- H2 (no ## mark, rendered heading) -->
  <text x="40" y="260" font-family="system-ui, sans-serif" font-size="19" font-weight="600" fill="#e2e8f0">Features</text>
  <!-- H2 bottom border -->
  <line x1="40" y1="268" x2="440" y2="268" stroke="#1e2038" stroke-width="1"/>

  <!-- List items with disc bullets -->
  <circle cx="50" cy="295" r="3" fill="#e2e8f0"/>
  <text x="62" y="300" font-family="system-ui, sans-serif" font-size="14" fill="#94a3b8">Google Drive integration</text>

  <circle cx="50" cy="323" r="3" fill="#e2e8f0"/>
  <text x="62" y="328" font-family="system-ui, sans-serif" font-size="14" fill="#94a3b8">Beautiful syntax highlighting</text>

  <circle cx="50" cy="351" r="3" fill="#e2e8f0"/>
  <text x="62" y="356" font-family="system-ui, sans-serif" font-size="14" fill="#94a3b8">Mermaid diagram support</text>

  <!-- Code Block with language label -->
  <rect x="40" y="376" width="420" height="90" rx="6" fill="#161b22" stroke="#30363d" stroke-width="1"/>
  <!-- Language label bar -->
  <rect x="40" y="376" width="420" height="22" rx="6" fill="#161b22"/>
  <rect x="40" y="392" width="420" height="6" fill="#161b22"/>
  <line x1="40" y1="398" x2="460" y2="398" stroke="#30363d" stroke-width="1"/>
  <text x="52" y="392" font-family="monospace" font-size="11" fill="#8b949e">javascript</text>
  <!-- Code content with syntax highlighting -->
  <text x="52" y="418" font-family="monospace" font-size="12"><tspan fill="#ff7b72">const</tspan><tspan fill="#e6edf3"> viewer = </tspan><tspan fill="#ff7b72">new</tspan><tspan fill="#e6edf3"> </tspan><tspan fill="#d2a8ff">MDViewer</tspan><tspan fill="#e6edf3">();</tspan></text>
  <text x="52" y="438" font-family="monospace" font-size="12"><tspan fill="#e6edf3">viewer.</tspan><tspan fill="#d2a8ff">render</tspan><tspan fill="#e6edf3">(markdown);</tspan></text>

  <!-- Decorative gradient overlay -->
  <defs>
    <linearGradient id="fadeBottom" x1="0" y1="0" x2="0" y2="1">
      <stop offset="0.7" stop-color="#0a0b14" stop-opacity="0"/>
      <stop offset="1" stop-color="#0a0b14" stop-opacity="0.8"/>
    </linearGradient>
  </defs>
  <rect x="0" y="400" width="500" height="100" fill="url(#fadeBottom)"/>
</svg>
