<svg width="320" height="640" viewBox="0 0 320 640" fill="none" xmlns="http://www.w3.org/2000/svg">
  <!-- Phone Frame -->
  <rect x="0" y="0" width="320" height="640" rx="36" fill="#ffffff" stroke="#e5e7eb" stroke-width="2"/>

  <!-- Status Bar -->
  <text x="24" y="24" font-family="system-ui, sans-serif" font-size="12" font-weight="600" fill="#1a1b2e">9:41</text>
  <circle cx="280" cy="19" r="4" fill="#1a1b2e"/>
  <rect x="254" y="16" width="16" height="7" rx="2" fill="#1a1b2e"/>
  <rect x="236" y="14" width="12" height="10" rx="1" fill="none" stroke="#1a1b2e" stroke-width="1.5"/>

  <!-- App Header -->
  <rect x="12" y="40" width="296" height="40" rx="8" fill="#f8f8fd"/>
  <text x="28" y="65" font-family="system-ui, sans-serif" font-size="13" font-weight="600" fill="#1a1b2e">README.md</text>

  <!-- Content Area -->
  <rect x="12" y="92" width="296" height="536" rx="8" fill="#ffffff" stroke="#e5e7eb" stroke-width="1"/>

  <!-- Raw Markdown Source (monospace, plain text) -->
  <text x="24" y="118" font-family="monospace" font-size="11" fill="#7c3aed"># Welcome to MarkDrive</text>
  <text x="24" y="140" font-family="monospace" font-size="11" fill="#374151">A beautiful Markdown viewer</text>
  <text x="24" y="158" font-family="monospace" font-size="11" fill="#374151">for Google Drive files.</text>
  <text x="24" y="184" font-family="monospace" font-size="11" fill="#7c3aed">## Features</text>
  <text x="24" y="210" font-family="monospace" font-size="11" fill="#374151">- Google Drive integration</text>
  <text x="24" y="228" font-family="monospace" font-size="11" fill="#374151">- Syntax highlighting</text>
  <text x="24" y="246" font-family="monospace" font-size="11" fill="#374151">- Mermaid diagram support</text>
  <text x="24" y="272" font-family="monospace" font-size="11" fill="#059669">```javascript</text>
  <text x="24" y="290" font-family="monospace" font-size="11" fill="#374151">const viewer = new MDViewer();</text>
  <text x="24" y="308" font-family="monospace" font-size="11" fill="#374151">viewer.render(markdown);</text>
  <text x="24" y="326" font-family="monospace" font-size="11" fill="#059669">```</text>
  <text x="24" y="356" font-family="monospace" font-size="11" fill="#374151">| Feature | Status |</text>
  <text x="24" y="374" font-family="monospace" font-size="11" fill="#374151">|---------|--------|</text>
  <text x="24" y="392" font-family="monospace" font-size="11" fill="#374151">| GFM     | Ready  |</text>
  <text x="24" y="410" font-family="monospace" font-size="11" fill="#374151">| Mermaid | Ready  |</text>
  <text x="24" y="428" font-family="monospace" font-size="11" fill="#374151">| KaTeX   | Ready  |</text>

  <!-- Decorative gradient overlay -->
  <defs>
    <linearGradient id="fadeMobileRawLight" x1="0" y1="0" x2="0" y2="1">
      <stop offset="0.75" stop-color="#ffffff" stop-opacity="0"/>
      <stop offset="1" stop-color="#ffffff" stop-opacity="0.9"/>
    </linearGradient>
  </defs>
  <rect x="0" y="540" width="320" height="100" rx="36" fill="url(#fadeMobileRawLight)"/>

  <!-- Phone Frame border (re-draw on top of gradient) -->
  <rect x="0" y="0" width="320" height="640" rx="36" fill="none" stroke="#e5e7eb" stroke-width="2"/>

  <!-- Home Indicator -->
  <rect x="110" y="618" width="100" height="4" rx="2" fill="#d1d5db"/>
</svg>
