<svg width="320" height="640" viewBox="0 0 320 640" fill="none" xmlns="http://www.w3.org/2000/svg">
  <!-- Phone Frame -->
  <rect x="0" y="0" width="320" height="640" rx="36" fill="#ffffff" stroke="#e5e7eb" stroke-width="2"/>

  <!-- Status Bar -->
  <text x="24" y="24" font-family="system-ui, sans-serif" font-size="12" font-weight="600" fill="#1a1b2e">9:41</text>
  <circle cx="280" cy="19" r="4" fill="#1a1b2e"/>
  <rect x="254" y="16" width="16" height="7" rx="2" fill="#1a1b2e"/>
  <rect x="236" y="14" width="12" height="10" rx="1" fill="none" stroke="#1a1b2e" stroke-width="1.5"/>

  <!-- App Header -->
  <rect x="12" y="40" width="296" height="40" rx="8" fill="#f8f8fd"/>
  <text x="28" y="65" font-family="system-ui, sans-serif" font-size="13" font-weight="600" fill="#1a1b2e">README.md</text>

  <!-- Content Area -->
  <rect x="12" y="92" width="296" height="536" rx="8" fill="#ffffff" stroke="#e5e7eb" stroke-width="1"/>

  <!-- Rendered Markdown Content -->
  <!-- H1 -->
  <text x="24" y="126" font-family="system-ui, sans-serif" font-size="22" font-weight="700" fill="#1a1b2e">Welcome to MarkDrive</text>
  <line x1="24" y1="134" x2="296" y2="134" stroke="#e5e7eb" stroke-width="2"/>

  <!-- Paragraph -->
  <text x="24" y="162" font-family="system-ui, sans-serif" font-size="13" fill="#4b5563">A beautiful Markdown viewer</text>
  <text x="24" y="180" font-family="system-ui, sans-serif" font-size="13" fill="#4b5563">for Google Drive files.</text>

  <!-- H2 -->
  <text x="24" y="218" font-family="system-ui, sans-serif" font-size="17" font-weight="600" fill="#1a1b2e">Features</text>
  <line x1="24" y1="226" x2="296" y2="226" stroke="#e5e7eb" stroke-width="1"/>

  <!-- List items -->
  <circle cx="32" cy="250" r="3" fill="#1a1b2e"/>
  <text x="44" y="254" font-family="system-ui, sans-serif" font-size="13" fill="#4b5563">Google Drive integration</text>

  <circle cx="32" cy="278" r="3" fill="#1a1b2e"/>
  <text x="44" y="282" font-family="system-ui, sans-serif" font-size="13" fill="#4b5563">Syntax highlighting</text>

  <circle cx="32" cy="306" r="3" fill="#1a1b2e"/>
  <text x="44" y="310" font-family="system-ui, sans-serif" font-size="13" fill="#4b5563">Mermaid diagram support</text>

  <!-- Code Block with language label -->
  <rect x="24" y="332" width="272" height="80" rx="6" fill="#f6f8fa" stroke="#d0d7de" stroke-width="1"/>
  <rect x="24" y="332" width="272" height="20" rx="6" fill="#f6f8fa"/>
  <rect x="24" y="346" width="272" height="6" fill="#f6f8fa"/>
  <line x1="24" y1="352" x2="296" y2="352" stroke="#d0d7de" stroke-width="1"/>
  <text x="34" y="347" font-family="monospace" font-size="10" fill="#6e7781">javascript</text>
  <text x="34" y="370" font-family="monospace" font-size="11"><tspan fill="#cf222e">const</tspan><tspan fill="#24292f"> viewer = </tspan><tspan fill="#cf222e">new</tspan><tspan fill="#24292f"> </tspan><tspan fill="#8250df">MDViewer</tspan><tspan fill="#24292f">();</tspan></text>
  <text x="34" y="388" font-family="monospace" font-size="11"><tspan fill="#24292f">viewer.</tspan><tspan fill="#8250df">render</tspan><tspan fill="#24292f">(markdown);</tspan></text>

  <!-- Table -->
  <rect x="24" y="430" width="272" height="24" rx="4" fill="#f0f0f8"/>
  <text x="36" y="446" font-family="system-ui, sans-serif" font-size="11" font-weight="600" fill="#1a1b2e">Feature</text>
  <text x="180" y="446" font-family="system-ui, sans-serif" font-size="11" font-weight="600" fill="#1a1b2e">Status</text>
  <line x1="24" y1="454" x2="296" y2="454" stroke="#e5e7eb" stroke-width="1"/>
  <text x="36" y="474" font-family="system-ui, sans-serif" font-size="11" fill="#4b5563">GFM</text>
  <text x="180" y="474" font-family="system-ui, sans-serif" font-size="11" fill="#4b5563">Ready</text>
  <line x1="24" y1="482" x2="296" y2="482" stroke="#e5e7eb" stroke-width="1"/>
  <text x="36" y="502" font-family="system-ui, sans-serif" font-size="11" fill="#4b5563">Mermaid</text>
  <text x="180" y="502" font-family="system-ui, sans-serif" font-size="11" fill="#4b5563">Ready</text>
  <line x1="24" y1="510" x2="296" y2="510" stroke="#e5e7eb" stroke-width="1"/>
  <text x="36" y="530" font-family="system-ui, sans-serif" font-size="11" fill="#4b5563">KaTeX</text>
  <text x="180" y="530" font-family="system-ui, sans-serif" font-size="11" fill="#4b5563">Ready</text>

  <!-- Decorative gradient overlay -->
  <defs>
    <linearGradient id="fadeMobileLight" x1="0" y1="0" x2="0" y2="1">
      <stop offset="0.75" stop-color="#ffffff" stop-opacity="0"/>
      <stop offset="1" stop-color="#ffffff" stop-opacity="0.9"/>
    </linearGradient>
  </defs>
  <rect x="0" y="540" width="320" height="100" rx="36" fill="url(#fadeMobileLight)"/>

  <!-- Phone Frame border (re-draw on top of gradient) -->
  <rect x="0" y="0" width="320" height="640" rx="36" fill="none" stroke="#e5e7eb" stroke-width="2"/>

  <!-- Home Indicator -->
  <rect x="110" y="618" width="100" height="4" rx="2" fill="#d1d5db"/>
</svg>
