<svg width="500" height="500" viewBox="0 0 500 500" fill="none" xmlns="http://www.w3.org/2000/svg">
  <!-- Browser Frame -->
  <rect x="0" y="0" width="500" height="500" rx="12" fill="#0a0b14"/>

  <!-- Title Bar -->
  <rect x="0" y="0" width="500" height="40" rx="12" fill="#111320"/>
  <rect x="0" y="28" width="500" height="12" fill="#111320"/>

  <!-- Window Controls -->
  <circle cx="20" cy="20" r="6" fill="#ff5f57"/>
  <circle cx="40" cy="20" r="6" fill="#febc2e"/>
  <circle cx="60" cy="20" r="6" fill="#28c840"/>

  <!-- URL Bar -->
  <rect x="90" y="10" width="340" height="20" rx="4" fill="#0a0b14"/>
  <text x="110" y="24" font-family="system-ui, sans-serif" font-size="11" fill="#64748b">mark-drive.com</text>

  <!-- App Header -->
  <rect x="20" y="56" width="460" height="48" rx="8" fill="#111320"/>
  <text x="40" y="86" font-family="system-ui, sans-serif" font-size="14" font-weight="600" fill="#e2e8f0">README.md</text>

  <!-- Content Area -->
  <rect x="20" y="120" width="460" height="360" rx="8" fill="#1a1d2e"/>

  <!-- Raw Markdown Source (monospace, plain text) -->
  <text x="40" y="148" font-family="monospace" font-size="12" fill="#c084fc"># Welcome to MarkDrive</text>
  <text x="40" y="172" font-family="monospace" font-size="12" fill="#cbd5e1">A beautiful Markdown viewer</text>
  <text x="40" y="192" font-family="monospace" font-size="12" fill="#cbd5e1">for Google Drive files.</text>
  <text x="40" y="220" font-family="monospace" font-size="12" fill="#c084fc">## Features</text>
  <text x="40" y="248" font-family="monospace" font-size="12" fill="#cbd5e1">- Google Drive integration</text>
  <text x="40" y="268" font-family="monospace" font-size="12" fill="#cbd5e1">- Beautiful syntax highlighting</text>
  <text x="40" y="288" font-family="monospace" font-size="12" fill="#cbd5e1">- Mermaid diagram support</text>
  <text x="40" y="316" font-family="monospace" font-size="12" fill="#6ee7b7">```javascript</text>
  <text x="40" y="336" font-family="monospace" font-size="12" fill="#cbd5e1">const viewer = new MDViewer();</text>
  <text x="40" y="356" font-family="monospace" font-size="12" fill="#cbd5e1">viewer.render(markdown);</text>
  <text x="40" y="376" font-family="monospace" font-size="12" fill="#6ee7b7">```</text>

  <!-- Decorative gradient overlay -->
  <defs>
    <linearGradient id="fadeBottomRaw" x1="0" y1="0" x2="0" y2="1">
      <stop offset="0.7" stop-color="#0a0b14" stop-opacity="0"/>
      <stop offset="1" stop-color="#0a0b14" stop-opacity="0.8"/>
    </linearGradient>
  </defs>
  <rect x="0" y="400" width="500" height="100" fill="url(#fadeBottomRaw)"/>
</svg>
