<svg width="320" height="640" viewBox="0 0 320 640" fill="none" xmlns="http://www.w3.org/2000/svg">
  <!-- Phone Frame -->
  <rect x="0" y="0" width="320" height="640" rx="36" fill="#ffffff" stroke="#e5e7eb" stroke-width="2"/>

  <!-- Status Bar -->
  <text x="24" y="24" font-family="system-ui, sans-serif" font-size="12" font-weight="600" fill="#1a1b2e">9:41</text>
  <circle cx="280" cy="19" r="4" fill="#1a1b2e"/>
  <rect x="254" y="16" width="16" height="7" rx="2" fill="#1a1b2e"/>
  <rect x="236" y="14" width="12" height="10" rx="1" fill="none" stroke="#1a1b2e" stroke-width="1.5"/>

  <!-- App Header -->
  <rect x="12" y="40" width="296" height="40" rx="8" fill="#f8f8fd"/>
  <text x="28" y="65" font-family="system-ui, sans-serif" font-size="13" font-weight="600" fill="#1a1b2e">README.md</text>

  <!-- Content Area -->
  <rect x="12" y="92" width="296" height="536" rx="8" fill="#ffffff" stroke="#e5e7eb" stroke-width="1"/>

  <!-- Markdown Content -->
  <!-- H1 -->
  <text x="24" y="124" font-family="system-ui, sans-serif" font-size="20" font-weight="700" fill="#1a1b2e"># Welcome to MarkDrive</text>

  <!-- Paragraph -->
  <text x="24" y="156" font-family="system-ui, sans-serif" font-size="12" fill="#4b5563">A beautiful Markdown viewer</text>
  <text x="24" y="172" font-family="system-ui, sans-serif" font-size="12" fill="#4b5563">for Google Drive files.</text>

  <!-- H2 -->
  <text x="24" y="210" font-family="system-ui, sans-serif" font-size="16" font-weight="600" fill="#1a1b2e">## Features</text>

  <!-- List items -->
  <circle cx="32" cy="240" r="3" fill="#6366f1"/>
  <text x="44" y="244" font-family="system-ui, sans-serif" font-size="12" fill="#4b5563">Google Drive integration</text>

  <circle cx="32" cy="266" r="3" fill="#6366f1"/>
  <text x="44" y="270" font-family="system-ui, sans-serif" font-size="12" fill="#4b5563">Syntax highlighting</text>

  <circle cx="32" cy="292" r="3" fill="#6366f1"/>
  <text x="44" y="296" font-family="system-ui, sans-serif" font-size="12" fill="#4b5563">Mermaid diagram support</text>

  <!-- Code Block -->
  <rect x="24" y="316" width="272" height="72" rx="6" fill="#f6f8fa"/>
  <text x="36" y="338" font-family="monospace" font-size="11" fill="#6e7781">```javascript</text>
  <text x="36" y="356" font-family="monospace" font-size="11" fill="#24292f">const viewer = new MDViewer();</text>
  <text x="36" y="374" font-family="monospace" font-size="11" fill="#24292f">viewer.render(markdown);</text>

  <!-- Table -->
  <rect x="24" y="408" width="272" height="24" rx="4" fill="#f0f0f8"/>
  <text x="36" y="424" font-family="system-ui, sans-serif" font-size="11" font-weight="600" fill="#1a1b2e">Feature</text>
  <text x="180" y="424" font-family="system-ui, sans-serif" font-size="11" font-weight="600" fill="#1a1b2e">Status</text>
  <line x1="24" y1="432" x2="296" y2="432" stroke="#e5e7eb" stroke-width="1"/>
  <text x="36" y="452" font-family="system-ui, sans-serif" font-size="11" fill="#4b5563">GFM</text>
  <text x="180" y="452" font-family="system-ui, sans-serif" font-size="11" fill="#059669">Ready</text>
  <line x1="24" y1="460" x2="296" y2="460" stroke="#e5e7eb" stroke-width="1"/>
  <text x="36" y="480" font-family="system-ui, sans-serif" font-size="11" fill="#4b5563">Mermaid</text>
  <text x="180" y="480" font-family="system-ui, sans-serif" font-size="11" fill="#059669">Ready</text>
  <line x1="24" y1="488" x2="296" y2="488" stroke="#e5e7eb" stroke-width="1"/>
  <text x="36" y="508" font-family="system-ui, sans-serif" font-size="11" fill="#4b5563">KaTeX</text>
  <text x="180" y="508" font-family="system-ui, sans-serif" font-size="11" fill="#059669">Ready</text>

  <!-- Decorative gradient overlay -->
  <defs>
    <linearGradient id="fadeMobileLight" x1="0" y1="0" x2="0" y2="1">
      <stop offset="0.75" stop-color="#ffffff" stop-opacity="0"/>
      <stop offset="1" stop-color="#ffffff" stop-opacity="0.9"/>
    </linearGradient>
  </defs>
  <rect x="0" y="540" width="320" height="100" rx="36" fill="url(#fadeMobileLight)"/>

  <!-- Home Indicator -->
  <rect x="110" y="618" width="100" height="4" rx="2" fill="#d1d5db"/>
</svg>
