<svg width="500" height="500" viewBox="0 0 500 500" fill="none" xmlns="http://www.w3.org/2000/svg">
  <!-- Browser Frame -->
  <rect x="0" y="0" width="500" height="500" rx="12" fill="#ffffff"/>
  <rect x="0" y="0" width="500" height="500" rx="12" stroke="#e5e7eb" stroke-width="1"/>

  <!-- Title Bar -->
  <rect x="0" y="0" width="500" height="40" rx="12" fill="#f8f8fd"/>
  <rect x="0" y="28" width="500" height="12" fill="#f8f8fd"/>

  <!-- Window Controls -->
  <circle cx="20" cy="20" r="6" fill="#ff5f57"/>
  <circle cx="40" cy="20" r="6" fill="#febc2e"/>
  <circle cx="60" cy="20" r="6" fill="#28c840"/>

  <!-- URL Bar -->
  <rect x="90" y="10" width="340" height="20" rx="4" fill="#ffffff" stroke="#e5e7eb" stroke-width="1"/>
  <text x="110" y="24" font-family="system-ui, sans-serif" font-size="11" fill="#6b7280">mark-drive.com</text>

  <!-- App Header -->
  <rect x="20" y="56" width="460" height="48" rx="8" fill="#f8f8fd"/>
  <text x="40" y="86" font-family="system-ui, sans-serif" font-size="14" font-weight="600" fill="#1a1b2e">README.md</text>

  <!-- Content Area -->
  <rect x="20" y="120" width="460" height="360" rx="8" fill="#ffffff" stroke="#e5e7eb" stroke-width="1"/>

  <!-- Rendered Markdown Content -->
  <!-- H1 (no # mark, rendered heading) -->
  <text x="40" y="160" font-family="system-ui, sans-serif" font-size="24" font-weight="700" fill="#1a1b2e">Welcome to MarkDrive</text>
  <!-- H1 bottom border -->
  <line x1="40" y1="170" x2="440" y2="170" stroke="#e5e7eb" stroke-width="2"/>

  <!-- Paragraph -->
  <text x="40" y="200" font-family="system-ui, sans-serif" font-size="14" fill="#4b5563">A beautiful Markdown viewer</text>
  <text x="40" y="220" font-family="system-ui, sans-serif" font-size="14" fill="#4b5563">for Google Drive files.</text>

  <!-- H2 (no ## mark, rendered heading) -->
  <text x="40" y="260" font-family="system-ui, sans-serif" font-size="19" font-weight="600" fill="#1a1b2e">Features</text>
  <!-- H2 bottom border -->
  <line x1="40" y1="268" x2="440" y2="268" stroke="#e5e7eb" stroke-width="1"/>

  <!-- List items with disc bullets -->
  <circle cx="50" cy="295" r="3" fill="#1a1b2e"/>
  <text x="62" y="300" font-family="system-ui, sans-serif" font-size="14" fill="#4b5563">Google Drive integration</text>

  <circle cx="50" cy="323" r="3" fill="#1a1b2e"/>
  <text x="62" y="328" font-family="system-ui, sans-serif" font-size="14" fill="#4b5563">Beautiful syntax highlighting</text>

  <circle cx="50" cy="351" r="3" fill="#1a1b2e"/>
  <text x="62" y="356" font-family="system-ui, sans-serif" font-size="14" fill="#4b5563">Mermaid diagram support</text>

  <!-- Code Block with language label -->
  <rect x="40" y="376" width="420" height="90" rx="6" fill="#f6f8fa" stroke="#d0d7de" stroke-width="1"/>
  <!-- Language label bar -->
  <rect x="40" y="376" width="420" height="22" rx="6" fill="#f6f8fa"/>
  <rect x="40" y="392" width="420" height="6" fill="#f6f8fa"/>
  <line x1="40" y1="398" x2="460" y2="398" stroke="#d0d7de" stroke-width="1"/>
  <text x="52" y="392" font-family="monospace" font-size="11" fill="#6e7781">javascript</text>
  <!-- Code content with syntax highlighting -->
  <text x="52" y="418" font-family="monospace" font-size="12"><tspan fill="#cf222e">const</tspan><tspan fill="#24292f"> viewer = </tspan><tspan fill="#cf222e">new</tspan><tspan fill="#24292f"> </tspan><tspan fill="#8250df">MDViewer</tspan><tspan fill="#24292f">();</tspan></text>
  <text x="52" y="438" font-family="monospace" font-size="12"><tspan fill="#24292f">viewer.</tspan><tspan fill="#8250df">render</tspan><tspan fill="#24292f">(markdown);</tspan></text>

  <!-- Decorative gradient overlay -->
  <defs>
    <linearGradient id="fadeBottomLight" x1="0" y1="0" x2="0" y2="1">
      <stop offset="0.7" stop-color="#ffffff" stop-opacity="0"/>
      <stop offset="1" stop-color="#ffffff" stop-opacity="0.8"/>
    </linearGradient>
  </defs>
  <rect x="0" y="400" width="500" height="100" fill="url(#fadeBottomLight)"/>
</svg>
